<?xml version="1.0" encoding="UTF-8" standalone="no"?>
<!-- Created with Inkscape (http://www.inkscape.org/) -->

<svg
   width="196.07912mm"
   height="80.79641mm"
   viewBox="0 0 196.07912 80.79641"
   version="1.1"
   id="svg5"
   xml:space="preserve"
   inkscape:export-filename="bitmap.svg"
   inkscape:export-xdpi="96"
   inkscape:export-ydpi="96"
   xmlns:inkscape="http://www.inkscape.org/namespaces/inkscape"
   xmlns:sodipodi="http://sodipodi.sourceforge.net/DTD/sodipodi-0.dtd"
   xmlns="http://www.w3.org/2000/svg"
   xmlns:svg="http://www.w3.org/2000/svg"><sodipodi:namedview
     id="namedview7"
     pagecolor="#000"
     bordercolor="#ffffff"
     borderopacity="1"
     inkscape:showpageshadow="0"
     inkscape:pageopacity="0"
     inkscape:pagecheckerboard="1"
     inkscape:deskcolor="#505050"
     inkscape:document-units="mm"
     showgrid="false" /><defs
     id="defs2" /><g
     id="g200"
     transform="translate(129.66856,-93.369701)"><path
       style="fill:#ffffff;fill-opacity:1;stroke-width:0.985322"
       d="m -77.067715,159.50035 c 8.052734,-8.06616 14.476411,-15.11899 14.274853,-15.67295 -0.201544,-0.55395 -5.837866,-6.65791 -12.525134,-13.56437 l -12.158677,-12.55721 -18.888217,18.86959 c -13.28133,13.26824 -19.54355,18.86959 -21.09594,18.86959 -1.21424,0 -2.20773,-0.55812 -2.20773,-1.24025 0,-0.68214 9.42593,-10.65852 20.94648,-22.16975 l 20.94651,-20.9295 h 13.806652 13.806652 l 8.826807,-8.8679 8.826821,-8.867896 h 28.60185 28.60185 l 25.857746,25.871546 c 14.221737,14.22936 25.857732,26.42272 25.857732,27.09636 0,0.67845 -1.205395,1.2248 -2.702246,1.2248 -2.212884,0 -6.98607,-4.27618 -26.357367,-23.61288 L 13.695806,100.33664 -5.7643073,119.5452 c -10.7030687,10.56472 -19.4601137,19.74473 -19.4601137,20.40005 0,0.65529 7.421974,8.62307 16.4932775,17.70616 16.3642033,16.38548 16.4663031,16.5147 13.0467235,16.5147 -3.1727858,0 -5.08874266,-1.64358 -24.120722,-20.69176 -11.370803,-11.38047 -21.347181,-20.69176 -22.16976,-20.69176 -0.822565,0 -10.798944,9.31129 -22.169746,20.69176 -19.028656,19.04486 -20.948359,20.69176 -24.119271,20.69176 -3.435105,0 -3.402631,-0.0425 11.196204,-14.66576 z m 25.239599,11.7098 c 0,-2.79175 0.218957,-2.95596 3.941291,-2.95596 3.72232,0 3.941291,0.16421 3.941291,2.95596 0,2.79175 -0.218971,2.95596 -3.941291,2.95596 -3.722334,0 -3.941291,-0.16421 -3.941291,-2.95596 z m 11.82386,0 c 0,-2.79175 0.218971,-2.95596 3.941291,-2.95596 3.722334,0 3.941292,0.16421 3.941292,2.95596 0,2.79175 -0.218958,2.95596 -3.941292,2.95596 -3.72232,0 -3.941291,-0.16421 -3.941291,-2.95596 z m -11.284353,-9.11423 c 0.855121,-2.8198 4.332508,-6.65092 6.036839,-6.65092 0.891247,0 1.306236,1.40866 1.306236,4.43395 v 4.43395 h -4.007689 c -3.69845,0 -3.955817,-0.17107 -3.335386,-2.21698 z m 11.284353,-2.21697 c 0,-3.02529 0.414989,-4.43395 1.306236,-4.43395 1.704317,0 5.181717,3.83112 6.036838,6.65092 0.620432,2.04591 0.363051,2.21698 -3.335386,2.21698 h -4.007688 z m -56.964769,-7.63625 c 0.283864,-2.94407 0.586837,-3.2023 3.757379,-3.2023 3.170542,0 3.473529,0.25823 3.757392,3.2023 0.303274,3.1454 0.236508,3.2023 -3.757392,3.2023 -3.9939,0 -4.060653,-0.057 -3.757379,-3.2023 z m 11.639961,-0.24634 c 0,-3.52002 0.04925,-3.56351 3.694948,-3.26177 3.380676,0.27981 3.694962,0.55725 3.694962,3.26177 0,2.70455 -0.314286,2.98199 -3.694962,3.26178 -3.64569,0.30173 -3.694948,0.25826 -3.694948,-3.26178 z m -11.823874,-7.93149 c 0,-1.5844 3.231167,-6.43361 4.872043,-7.31178 2.862138,-1.53177 3.01054,-1.36321 3.01054,3.41941 v 4.43395 h -3.941291 c -2.167704,0 -3.941292,-0.24371 -3.941292,-0.54158 z m 11.823874,-3.89237 c 0,-4.78262 0.148402,-4.95118 3.010539,-3.41941 1.640862,0.87817 4.872029,5.72738 4.872029,7.31178 0,0.29787 -1.773574,0.54158 -3.941278,0.54158 h -3.94129 z m 89.6643002,-4.43395 c 0,-2.79175 0.2189716,-2.95596 3.9412918,-2.95596 3.722334,0 3.941291,0.16421 3.941291,2.95596 0,2.79175 -0.218957,2.95597 -3.941291,2.95597 -3.7223202,0 -3.9412918,-0.16422 -3.9412918,-2.95597 z m 10.8385448,0 c 0,-2.79175 0.218957,-2.95596 3.94129,-2.95596 3.722334,0 3.941292,0.16421 3.941292,2.95596 0,2.79175 -0.218958,2.95597 -3.941292,2.95597 -3.722333,0 -3.94129,-0.16422 -3.94129,-2.95597 z M 4.3352362,127.01453 c 0,-2.27463 4.3037399,-7.04112 6.3575528,-7.04112 1.150557,0 1.52503,1.08873 1.52503,4.43395 v 4.43394 H 8.276528 c -3.1809383,0 -3.9412918,-0.35242 -3.9412918,-1.82677 z m 10.8385448,-2.60717 c 0,-4.6271 1.051562,-5.45519 4.026688,-3.17098 1.737955,1.33438 3.855894,4.93475 3.855894,6.55482 0,0.57755 -1.773574,1.0501 -3.941292,1.0501 h -3.94129 z"
       id="path202" /></g></svg>
